<?xml version="1.0" standalone="no"?><!DOCTYPE svg PUBLIC "-//W3C//DTD SVG 1.1//EN" "http://www.w3.org/Graphics/SVG/1.1/DTD/svg11.dtd"><svg width="200" height="200" viewBox="0 0 200 200" version="1.1" xmlns="http://www.w3.org/2000/svg" xmlns:xlink="http://www.w3.org/1999/xlink"><defs><style type="text/css"><![CDATA[
@font-face { font-family: ifont; src: url("http://at.alicdn.com/t/font_1442373896_4754455.eot?#iefix") format("embedded-opentype"), url("http://at.alicdn.com/t/font_1442373896_4754455.woff") format("woff"), url("http://at.alicdn.com/t/font_1442373896_4754455.ttf") format("truetype"), url("http://at.alicdn.com/t/font_1442373896_4754455.svg#ifont") format("svg"); }

]]></style></defs><g class="transform-group"><g transform="scale(0.1953125, 0.1953125)"><path d="M706.56 232.064c54.144 0 98.304 44.16 98.304 98.304 0 54.144-44.16 98.304-98.304 98.304-54.144 0-98.304-44.16-98.304-98.304C608.256 276.096 652.416 232.064 706.56 232.064L706.56 232.064zM706.56 363.136c18.048 0 32.768-14.72 32.768-32.768 0-18.048-14.72-32.768-32.768-32.768-18.048 0-32.768 14.72-32.768 32.768C673.792 348.416 688.512 363.136 706.56 363.136L706.56 363.136zM706.56 363.136M611.328 88.32l135.04 0c163.712 0 191.36 60.672 191.36 196.608l0 144.128c0 76.032-14.592 98.56-72.448 154.624L530.432 911.232c-37.504 36.352-108.416 36.224-145.664 0.128L115.328 649.216C96.512 631.04 85.76 604.672 85.76 576.896c0-27.904 10.88-54.528 29.952-72.96l296.96-301.696C479.744 136.064 528.256 88.32 611.328 88.32L611.328 88.32zM457.6 874.368c10.752 0 20.608-3.584 27.136-9.984l334.848-327.552c51.2-49.664 52.608-55.808 52.608-107.648L872.192 284.928c0-112.896-8.576-131.072-125.824-131.072L611.328 153.856c-53.888 0-85.76 29.184-152.576 94.976l-27.264 26.752L161.92 550.4c-6.912 6.784-10.624 16.128-10.624 26.496 0 10.112 3.456 19.328 9.728 25.344l269.44 262.144C436.864 870.656 446.848 874.368 457.6 874.368L457.6 874.368zM457.6 874.368" fill="#ffffff"></path></g></g></svg>